<?xml version="1.0" encoding="UTF-8"?>
<svg id="Layer_1" data-name="Layer 1" xmlns="http://www.w3.org/2000/svg" viewBox="0 0 360.28 162.07">
  <defs>
    <style>
      .cls-1 {
        fill: #ce5ed1;
      }

      .cls-1, .cls-2, .cls-3, .cls-4 {
        stroke-width: 0px;
      }

      .cls-2 {
        fill: #873587;
      }

      .cls-3 {
        isolation: isolate;
        opacity: .63;
      }

      .cls-3, .cls-4 {
        fill: #fff;
      }
    </style>
  </defs>
  <g id="Layer_1-2" data-name="Layer 1-2">
    <path class="cls-2" d="M320.12,118.02c-3.96,0-7.79-.78-11.39-2.32-7.63-3.27-13.48-9.66-17.39-19-1.77-4.27-2.79-8.5-3.12-12.93-.32-4.24.26-8.29,1.78-12.37,1.41-3.81,3.68-7.18,6.93-10.31,3.32-3.09,7.05-5.44,11.46-7.22,4.57-1.86,8.79-2.77,12.9-2.77,1.29,0,2.59.09,3.85.28,5.46.81,10.07,2.79,13.71,5.88,3.59,2.96,6.37,6.64,8.21,10.9,1.9,4.63,1.68,8.35-.66,11.12-1.81,2.09-4.9,4.02-8.73,5.47l-23.82,9.83c.88,1.43,1.92,2.67,3.12,3.69,1.71,1.47,3.6,2.39,5.61,2.71.54.09,1.09.13,1.62.13,1.39,0,2.75-.3,4.05-.9l.11-.05c1.38-.57,2.55-1.22,3.58-1.98,1.11-.93,1.92-1.79,2.57-2.71.88-1.37,1.59-2.54,2.21-3.77.38-.77.8-1.66,1.28-2.69.39-.83.81-1.75,1.3-2.77l.08-.16c.82-1.48,2.12-2.61,3.96-3.47,1.26-.54,2.42-.8,3.55-.8.96,0,1.89.19,2.77.55,2.09.87,3.53,2.37,4.27,4.46.67,1.74.82,3.81.44,6.43-.34,2.37-1.21,4.79-2.73,7.61-1.33,2.46-3.31,4.83-6.41,7.68-2.53,2.33-5.86,4.32-10.47,6.26-5.07,2.13-10,3.21-14.66,3.21h.02ZM326.26,68.33c-.9,0-1.85.22-2.83.65-1.9.8-3.09,2-3.7,3.68-.42,1.13-.56,2.51-.42,4.04l12.45-5.11c-.96-1.29-2.01-2.21-3.1-2.71-.79-.36-1.58-.54-2.41-.54h.01Z"/>
    <path id="e" class="cls-1" d="M336.61,81.94l-26.9,11.1c1.3,3.1,3.1,5.6,5.3,7.5,2.2,1.9,4.6,3,7.1,3.4,2.5.4,5,.1,7.4-1,1.7-.7,3.1-1.5,4.3-2.4,1.2-1,2.3-2.1,3.2-3.4.9-1.4,1.7-2.7,2.4-4.1.7-1.4,1.5-3.2,2.6-5.5.5-.9,1.3-1.6,2.6-2.2,1.4-.6,2.7-.7,3.9-.2,1.2.5,2.1,1.3,2.6,2.7.5,1.3.6,2.9.3,5-.3,2.1-1.1,4.2-2.4,6.6s-3.3,4.6-5.8,6.9-5.8,4.1-9.6,5.7c-8.8,3.7-16.7,3.9-23.7.9s-12.2-8.8-15.8-17.4c-1.7-4.1-2.6-8-2.9-12-.3-4,.3-7.6,1.6-11.1s3.4-6.5,6.2-9.2c2.9-2.7,6.3-4.9,10.5-6.6,5.4-2.2,10.4-3,15.2-2.3,4.7.7,8.9,2.4,12.2,5.2,3.4,2.8,5.8,6.1,7.4,9.8,1.4,3.4,1.4,6.1-.2,8-1.3,1.5-3.8,3.2-7.5,4.6h0ZM317.11,80.84l19-7.8c-1.7-3.5-3.8-5.8-6.2-6.9-2.4-1.1-5-1.1-7.7.1-2.6,1.1-4.4,2.9-5.3,5.4-.9,2.4-.9,5.6.2,9.2h0Z"/>
    <g id="highlight4">
      <path class="cls-3" d="M338.8,66.34c-.3,1.3-6.2-1.9-12-3.5-5.9-1.5-10.4-3.8-10-5.1.4-1.3,5.7-1.8,11.6-.2,5.8,1.4,10.7,7.5,10.4,8.8h0Z"/>
    </g>
    <path class="cls-2" d="M331.62,141.75c-.29,0-.58,0-.87-.02l-.35-.02-7.12-1.13c-2.86-.34-25.77-3.26-40.69-9.81-9.3-4.08-14.28-9.4-16.42-12.2-5.92-7.77-8.34-13.22-9.37-15.55-.09-.2-.16-.37-.22-.5-11.43-23.16-34.05-70.8-34.28-71.28-2.1-4.08-2.51-8.74-1.16-13.39,1.3-4.33,3.55-7.74,6.69-10.17l.22-.17.22-.14c1.87-1.19,3.94-1.95,6.18-2.27.85-.15,1.7-.22,2.59-.22,1.54,0,2.91.22,4.16.45l.22.04.21.06c2.2.59,4.21,1.45,5.98,2.57,2.28,1.34,4.08,3.31,5.35,5.84,1.93,3.75,4.17,8.26,6.64,13.38,2.43,5.03,5.27,10.75,8.95,17.99,3.76,7.4,7.08,14.07,10.15,20.39,1.44,2.97,2.19,4.46,2.8,5.71l.04.09c.84,1.68,1.47,2.96,3.22,6.62.61,1.31,1.03,2.28,1.41,3.17.89,2.07,1.58,3.66,4.2,8.3.07.12.29.53.56,1.04.78,1.52,2.09,4.07,4.55,6.09,3.65,3,7.57,5.29,8.57,5.5l.2.04c4.17,1.01,26.32,4.93,31.59,5.85l.3.05.3.08c9.24,2.62,13.41,10.5,13.37,16.71-.06,9.46-8.05,16.88-18.19,16.88v.02Z"/>
    <path class="cls-4" d="M331.62,138.75c-.25,0-.5,0-.74-.02h-.17l-7.01-1.12c-1.67-.2-25.11-3.09-39.9-9.58-8.68-3.81-13.27-8.7-15.23-11.28-5.71-7.49-8.02-12.71-9.01-14.94-.1-.22-.18-.4-.25-.55-11.3-22.88-33.48-69.6-34.29-71.3-1.78-3.47-2.12-7.37-.99-11.27,1.11-3.7,3.01-6.6,5.65-8.64l.11-.08.12-.07c1.51-.96,3.2-1.58,5.04-1.83.69-.12,1.38-.19,2.12-.19,1.3,0,2.5.19,3.61.4l.11.02.11.03c1.91.51,3.66,1.26,5.19,2.23,1.79,1.04,3.21,2.6,4.22,4.62,1.93,3.74,4.16,8.24,6.62,13.34,2.43,5.03,5.28,10.77,8.97,18.04,3.75,7.38,7.06,14.03,10.12,20.35,1.48,3.05,2.23,4.56,2.86,5.83.82,1.64,1.44,2.9,3.2,6.58.6,1.29,1.01,2.24,1.4,3.13.9,2.09,1.61,3.74,4.32,8.53.1.16.28.5.5.93.83,1.62,2.38,4.63,5.32,7.05,3.23,2.65,7.93,5.74,9.9,6.12l.14.03c4.77,1.15,31.43,5.83,31.7,5.87l.15.03.15.04c7.72,2.19,11.21,8.69,11.18,13.8-.05,7.79-6.72,13.9-15.19,13.9h-.03Z"/>
    <path id="l" class="cls-1" d="M303.09,108.03c-3.22-.62-9.08-4.98-11.23-6.75-4.12-3.38-5.85-7.69-6.52-8.82-3.9-6.9-3.8-7.53-5.81-11.84-3.1-6.5-2.65-5.38-6.05-12.38-3.4-7-6.8-13.8-10.1-20.3-3.3-6.5-6.3-12.5-9-18.1-2.7-5.6-4.9-10-6.6-13.3-.7-1.4-1.7-2.6-3.1-3.4-1.4-.9-2.9-1.5-4.4-1.9-1.6-.3-3.1-.5-4.7-.2-1.5.2-2.8.7-3.9,1.4-2.2,1.7-3.7,4.1-4.6,7.1-.9,3.1-.7,6.2.8,9.1,0,0,22.71,47.86,34.31,71.36.7,1.5,2.78,6.89,8.92,14.94,1.86,2.44,6.14,6.87,14.05,10.35,14.78,6.48,39.11,9.36,39.11,9.36l6.9,1.1c6.55.3,12.76-4.21,12.8-10.9.02-4.2-3-9.2-9-10.9,0,0-26.97-4.72-31.89-5.91h.01Z"/>
    <path class="cls-2" d="M21.61,127.14c-5.33,0-9.3-1.32-11.77-3.93-2.44-2.57-3.73-6.6-3.73-11.67V34.64c0-5.4,1.32-9.4,3.93-11.87,2.67-2.54,6.6-3.83,11.67-3.83h33.2c5.11,0,9.56.32,13.21.94,4.16.81,7.64,2.07,10.71,3.87,2.68,1.56,5.17,3.7,7.21,6.19,2.18,2.66,3.74,5.33,4.79,8.16,1.12,3.02,1.69,6.2,1.69,9.44,0,9.35-3.86,16.74-11.48,22.01,10.81,5.2,16.28,13.75,16.28,25.49,0,6.27-1.64,12-4.88,17.03-3.18,5.05-7.63,8.87-13.21,11.32-3.39,1.42-7.29,2.4-11.65,2.93-4.59.55-9.52.82-14.66.82h-31.31ZM61.21,98.14c10.57,0,12-4.75,12-9.4,0-3.25-.87-5.46-2.67-6.78-1.99-1.45-5.35-2.23-9.99-2.32h-12.34v18.5h13ZM58.81,61.54c4.15,0,6.36-.54,7.49-.99,1.28-.51,2.24-1.5,3.01-3.11l.04-.09.05-.09c.62-1.09.91-2.38.91-3.93,0-4.51-1.75-5.45-2.32-5.76-2.15-1.16-5.74-1.74-10.68-1.74h-9.1v15.7h10.6Z"/>
    <path id="b" class="cls-1" d="M52.91,124.14h-31.3c-4.5,0-7.7-1-9.6-3s-2.9-5.3-2.9-9.6V34.64c0-4.5,1-7.8,3-9.7,2-1.9,5.1-3,9.6-3h33.2c4.9,0,9.2.3,12.7.9,3.6.7,6.8,1.8,9.7,3.5,2.4,1.4,4.6,3.3,6.4,5.5s3.3,4.6,4.3,7.3,1.5,5.5,1.5,8.4c0,10.2-5.1,17.7-15.4,22.5,13.4,4.3,20.2,12.6,20.2,25,0,5.7-1.5,10.9-4.4,15.4-2.9,4.6-6.9,8-11.9,10.2-3.1,1.3-6.7,2.2-10.8,2.7-4.2.5-9,.8-14.3.8h0ZM45.21,42.84v21.7h13.6c3.7,0,6.6-.4,8.6-1.2s3.5-2.3,4.6-4.6c.9-1.6,1.3-3.4,1.3-5.4,0-4.2-1.3-7-3.9-8.4-2.6-1.4-6.6-2.1-12.1-2.1h-12.1ZM60.61,76.64h-15.4v24.5h16c10,0,15-4.1,15-12.4,0-4.2-1.3-7.3-3.9-9.2-2.6-1.9-6.5-2.8-11.7-2.9h0Z"/>
    <path class="cls-2" d="M144.44,128.96c-4.4,0-8.08-1.33-10.09-3.65-.71-.81-1.28-1.7-1.72-2.69-.17.15-.34.31-.53.46-2.31,1.87-4.96,3.29-7.87,4.23-2.82.9-5.9,1.34-9.41,1.34-4.36,0-8.21-.89-11.78-2.73-3.54-1.82-6.25-4.35-8.29-7.71-2.28-3.76-3.44-9.17-3.44-16.06v-31.5c0-3.88,1.04-7.04,3.01-9.15,1.99-2.13,4.72-3.25,7.89-3.25s5.91,1.13,7.99,3.35c2,2.13,3.01,5.21,3.01,9.15v25.5c0,3.35.27,6.19.8,8.45.56,1.97,1.39,3.45,2.47,4.4,1.06.87,2.68,1.36,4.62,1.36s4.04-.64,5.79-1.86c.92-.61,1.13-1.15,1.66-2.76.2-.61.43-1.29.74-2.04.35-1.07,1.11-4.45,1.11-13.74v-19.3c0-3.94.96-6.91,2.93-9.07,2.38-2.88,7.27-3.92,11.08-3.92,4.74,0,8.6,1.52,10.59,4.18.45.64.84,1.33,1.16,2.07,1.03-1.07,2.02-1.94,2.87-2.61,2.58-2.07,6-3.16,9.87-3.16s7.67.97,11.14,2.87c3.92,2.15,6.12,5.15,6.54,8.9l.02.17v.17c0,2.64-1,5.04-2.88,6.92-1.82,1.82-4.04,2.78-6.42,2.78-.59,0-1.51-.1-5.11-1.24l-.11-.04c-1.68-.61-3.32-.92-4.88-.92s-2.86.37-3.83,1.14c-1.05.84-2.43,2.22-3.03,4-.76,2.29-1.29,4.96-1.56,7.92-.32,3.56-.49,7.54-.49,11.83v13.2c0,4-1.05,7.15-3.11,9.35-2.45,2.7-7.17,3.67-10.76,3.67h.02Z"/>
    <path id="ur" class="cls-1" d="M178.61,63.74c-3.1-1.7-6.4-2.5-9.7-2.5s-6,.9-8,2.5c-2,1.6-4.5,4.1-6.4,7.4-.1-3.3-.7-5.7-1.9-7.4-3.3-4.4-14.3-3.5-17-.1-1.5,1.6-2.2,3.9-2.2,7.1v19.3c0,7.6-.5,12.5-1.3,14.8-1.1,2.6-1.1,4.6-3.5,6.2-2.3,1.6-4.9,2.4-7.5,2.4s-4.9-.7-6.6-2.1c-1.6-1.4-2.7-3.4-3.4-5.9-.6-2.5-.9-5.6-.9-9.2v-25.5c0-3.1-.7-5.5-2.2-7.1-1.5-1.6-3.4-2.4-5.8-2.4s-4.3.8-5.7,2.3c-1.4,1.5-2.2,3.9-2.2,7.1v31.5c0,6.3,1,11.2,3,14.5,1.7,2.8,4,5,7.1,6.6,3.1,1.6,6.5,2.4,10.4,2.4,3.2,0,6-.4,8.5-1.2,2.5-.8,4.8-2,6.9-3.7,2.1-1.7,2.4-3.7,4.3-6.1v2.1c0,2.9.7,5,2.1,6.6,3.3,3.8,13.4,3.2,16.4-.1,1.5-1.6,2.3-4,2.3-7.3v-13.2c0-4.8.2-8.8.5-12.1s.9-6.2,1.7-8.6,2.5-4.2,4-5.4,3.4-1.8,5.7-1.8c1.7,0,3.7.3,5.9,1.1,2.2.7,3.7,1.1,4.2,1.1,1.5,0,3-.6,4.3-1.9,1.3-1.3,2-2.9,2-4.8-.3-2.7-1.9-4.9-5-6.6h0Z"/>
    <path class="cls-2" d="M191.71,157.14c-4.39,0-7.47-1.53-9.13-4.55-1.33-2.41-1.97-5.73-1.97-10.15v-75.3c0-4.09.99-7.25,2.95-9.38,1.93-2.3,4.75-3.52,8.15-3.52,3.21,0,5.98,1.14,8.22,3.38,1.25,1.32,2.12,2.87,2.66,4.69,2.06-1.87,4.19-3.42,6.39-4.61,3.99-2.17,8.51-3.26,13.43-3.26,5.91,0,11.42,1.57,16.38,4.65,4.78,2.87,8.76,7.35,11.79,13.29,2.81,5.73,4.23,12.54,4.23,20.26,0,5.95-.81,11.12-2.47,15.8-1.6,4.79-3.88,8.93-6.76,12.26-2.89,3.33-6.5,6.02-10.45,7.78-4.12,1.83-8.43,2.76-12.82,2.76-5.52,0-10.27-1.15-14.12-3.41-1.75-1.03-3.45-2.27-5.08-3.73v18.54c0,12.62-7.14,14.5-11.4,14.5h0ZM219.11,76.14c-3.4,0-6.19,1.3-8.55,3.98-2.42,2.83-3.65,7.19-3.65,12.92s1.19,9.63,3.65,12.42c2.39,2.8,5.12,4.08,8.65,4.08,2.06,0,3.81-.54,5.36-1.64,1.69-1.16,3.09-2.99,4.32-5.63,1.13-2.61,1.72-5.84,1.72-9.53s-.54-6.81-1.64-9.27c-1.13-2.52-2.51-4.35-4.23-5.6-1.66-1.13-3.58-1.73-5.64-1.73h.01Z"/>
    <path id="p" class="cls-1" d="M200.21,67.14v2.1c3.3-4.1,6.7-7,10.2-8.9s7.5-2.9,12-2.9c5.4,0,10.3,1.4,14.8,4.2,4.5,2.7,8,6.8,10.7,12.1,2.6,5.3,3.9,11.6,3.9,18.9,0,5.4-.7,10.3-2.3,14.8-1.5,4.5-3.6,8.3-6.2,11.3-2.6,3-5.8,5.4-9.4,7-3.6,1.6-7.5,2.5-11.6,2.5-5,0-9.2-1-12.6-3-3.4-2-6.6-4.9-9.6-8.8v26.2c0,7.6-2.8,11.5-8.4,11.5-3.3,0-5.4-1-6.5-3-1.1-2-1.6-4.9-1.6-8.7v-75.3c0-3.3.7-5.8,2.2-7.4,1.4-1.7,3.4-2.5,5.9-2.5s4.5.9,6.1,2.5c1.7,1.8,2.4,4.2,2.4,7.4h0ZM233.61,92.74c0-4.1-.6-7.6-1.9-10.5s-3-5.2-5.2-6.8c-2.2-1.5-4.7-2.3-7.4-2.3-4.3,0-7.9,1.7-10.8,5-2.9,3.4-4.4,8.4-4.4,14.9s1.4,11,4.4,14.4c2.9,3.4,6.5,5.1,10.9,5.1,2.6,0,5-.7,7.1-2.2,2.2-1.5,3.9-3.8,5.3-6.8,1.3-3,2-6.6,2-10.8h0Z"/>
    <g id="highlight7">
      <path class="cls-3" d="M84.31,36.34c-.7,1.4-6.2-.1-12.4-3.2-6.1-3.2-10.4-6.9-9.7-8.3.7-1.4,6.8-.6,12.9,2.6,6.2,3.2,9.9,7.5,9.2,8.9h0Z"/>
    </g>
    <g id="highlight6">
      <path class="cls-3" d="M150.61,102.74c-.8,0-1.4-5.5-1.4-12.4s.6-12.4,1.4-12.4,1.8,5.8,1.8,12.6-1,12.2-1.8,12.2h0Z"/>
    </g>
    <g id="highlight5">
      <path class="cls-3" d="M245.31,76.04c-.7,1.4-6.3-3.7-12.4-6.9-6.1-3.2-10.4-6.9-9.6-8.3s6.8-.6,12.9,2.6c6,3.3,9.8,11.2,9.1,12.6h0Z"/>
    </g>
    <g id="highlight3">
      <path class="cls-3" d="M108.01,73.84c-1.2.3-1.1.1-2.3-4-1.2-4-4.1-7.1-2.9-7.4s3.9,0,5.1,4c1.3,4,1.3,7,.1,7.4h0Z"/>
    </g>
    <g id="highlight2">
      <path class="cls-3" d="M151.41,73.84c-1.2.3-1.1.1-2.3-4-1.2-4-4.1-7.1-2.9-7.4,1.2-.3,3.9,0,5.1,4,1.3,4,1.3,7,.1,7.4h0Z"/>
    </g>
    <g id="highlight1">
      <path class="cls-3" d="M86.71,80.84c-.7,1.4-5,.5-9.5-1.8-4.5-2.4-7.7-5.4-6.9-6.8.7-1.4,5.5-.6,10,1.8,4.5,2.4,7.1,5.5,6.4,6.8h0Z"/>
    </g>
    <g id="highlight">
      <path class="cls-3" d="M179.81,68.04c-.5,1.2-3.4,1.1-6.7-.1-3.3-1.2-5.5-3.2-5.1-4.4.5-1.2,3.8-1.3,7-.1,3.3,1.4,5.2,3.4,4.8,4.6h0Z"/>
    </g>
  </g>
</svg>